<?xml version="1.0" standalone="no"?>
<!DOCTYPE svg PUBLIC "-//W3C//DTD SVG 20010904//EN"
 "http://www.w3.org/TR/2001/REC-SVG-20010904/DTD/svg10.dtd">
<svg version="1.0" xmlns="http://www.w3.org/2000/svg"
 width="600.000000pt" height="600.000000pt" viewBox="0 0 600.000000 600.000000"
 preserveAspectRatio="xMidYMid meet">

<g transform="translate(0.000000,600.000000) scale(0.100000,-0.100000)"
fill="#000000" stroke="none">
<path d="M1320 4509 c-188 -18 -400 -105 -550 -226 -286 -230 -435 -621 -375
-988 47 -291 199 -538 425 -687 461 -305 958 -271 1342 90 95 89 161 178 213
287 40 81 95 245 95 281 0 11 -34 14 -188 14 l-188 0 -28 -57 c-47 -98 -134
-219 -193 -272 -137 -122 -362 -190 -537 -161 -244 39 -453 211 -531 437 -114
330 23 686 324 836 131 66 219 83 348 69 182 -20 332 -89 432 -197 50 -54 127
-171 160 -243 l24 -52 189 0 c154 0 188 3 188 14 0 8 -11 54 -25 102 -68 234
-217 447 -404 573 -203 138 -471 205 -721 180z"/>
<path d="M3378 4083 l-3 -438 -82 -3 -83 -3 0 -179 0 -180 85 0 85 0 0 -440 0
-440 185 0 185 0 0 440 0 440 83 0 82 0 248 -241 247 -241 0 -659 0 -659 175
0 175 0 0 659 0 659 427 421 428 421 -255 0 -255 0 -145 -146 c-80 -80 -198
-195 -263 -256 l-117 -110 -263 255 -263 256 -152 7 -152 7 0 433 0 434 -185
0 -185 0 -2 -437z"/>
<path d="M2660 3815 l0 -175 185 0 185 0 0 175 0 175 -185 0 -185 0 0 -175z"/>
<path d="M2660 2840 l0 -440 185 0 185 0 0 440 0 440 -185 0 -185 0 0 -440z"/>
</g>
</svg>
